<svg xmlns="http://www.w3.org/2000/svg" width="1200" height="1500" viewBox="0 0 1200 1500" fill="none">
  <rect width="1200" height="1500" fill="#04070E"/>
  <rect y="820" width="1200" height="680" fill="#0B111B"/>
  <path d="M0 996C180 940 366 923 548 940C746 958 928 1007 1200 938V1500H0V996Z" fill="#101827"/>
  <path d="M0 1108C208 1034 382 1005 526 1016C746 1032 932 1088 1200 1018V1500H0V1108Z" fill="#172439"/>
  <circle cx="931" cy="214" r="2" fill="white" fill-opacity=".6"/>
  <circle cx="1032" cy="260" r="1.5" fill="white" fill-opacity=".52"/>
  <circle cx="199" cy="242" r="1.5" fill="white" fill-opacity=".44"/>
  <ellipse cx="610" cy="594" rx="248" ry="75" fill="#D9E6FF" fill-opacity=".16"/>
  <ellipse cx="610" cy="606" rx="216" ry="46" fill="#EEF4FF" fill-opacity=".82"/>
  <path d="M403 607C465 559 557 538 652 545C735 551 802 574 836 610C736 638 526 640 403 607Z" fill="#9DB6E0"/>
  <path d="M474 597C520 559 694 552 755 598" stroke="#F8FBFF" stroke-width="8" stroke-linecap="round"/>
  <path d="M548 556C562 506 651 501 672 556C641 569 589 570 548 556Z" fill="#E9F1FF"/>
  <path d="M573 558C587 536 637 533 651 558C629 566 596 566 573 558Z" fill="#A7BFE6"/>
  <path d="M600 626L579 706H641L620 626H600Z" fill="#C9D9F4" fill-opacity=".5"/>
  <path d="M450 642C526 672 694 672 780 642" stroke="#F7FBFF" stroke-opacity=".56" stroke-width="4" stroke-linecap="round"/>
  <text x="94" y="1268" fill="#F3F7FF" font-family="Helvetica, Arial, sans-serif" font-size="102" font-weight="700">George Adamski</text>
  <text x="96" y="1348" fill="#C6D8F6" font-family="Helvetica, Arial, sans-serif" font-size="34" letter-spacing="7">1950s / CONTACTEE ERA</text>
</svg>
