<svg xmlns="http://www.w3.org/2000/svg" width="1200" height="1500" viewBox="0 0 1200 1500" fill="none">
  <rect width="1200" height="1500" fill="#050811"/>
  <path d="M0 922C148 850 287 812 418 808C594 803 724 874 899 852C1012 838 1111 790 1200 708V1500H0V922Z" fill="#0B1422"/>
  <path d="M0 1084C182 1008 345 974 489 982C663 991 783 1046 958 1031C1059 1022 1140 992 1200 950V1500H0V1084Z" fill="#101D2F"/>
  <path d="M123 819C254 745 389 704 528 697C722 687 877 743 1042 712" stroke="#334966" stroke-width="4" stroke-opacity=".58"/>
  <path d="M205 595C360 492 621 455 958 544" stroke="#9FC4FF" stroke-opacity=".48" stroke-width="6" stroke-linecap="round" stroke-dasharray="3 24"/>
  <path d="M238 574L327 538L413 574L330 612L238 574Z" fill="#EDF5FF"/>
  <path d="M250 574L329 551L399 575L329 600L250 574Z" stroke="#FFFFFF" stroke-opacity=".72" stroke-width="5"/>
  <path d="M244 598C306 618 370 616 422 582C385 631 303 652 244 598Z" fill="#81A8E7" fill-opacity=".26"/>
  <path d="M464 522L570 482L678 526L571 571L464 522Z" fill="#F6FAFF"/>
  <path d="M480 523L571 497L661 528L571 557L480 523Z" stroke="#FFFFFF" stroke-opacity=".78" stroke-width="6"/>
  <path d="M464 552C539 577 620 572 690 529C642 594 538 624 464 552Z" fill="#83ADEC" fill-opacity=".28"/>
  <path d="M730 553L850 508L972 558L851 608L730 553Z" fill="#EAF3FF"/>
  <path d="M748 554L851 525L954 560L851 593L748 554Z" stroke="#FFFFFF" stroke-opacity=".74" stroke-width="6"/>
  <path d="M729 586C811 612 904 607 984 561C927 633 817 668 729 586Z" fill="#82AAEA" fill-opacity=".26"/>
  <circle cx="895" cy="198" r="2" fill="white" fill-opacity=".65"/>
  <circle cx="988" cy="312" r="2" fill="white" fill-opacity=".55"/>
  <circle cx="211" cy="266" r="1.5" fill="white" fill-opacity=".48"/>
  <circle cx="337" cy="175" r="1.5" fill="white" fill-opacity=".54"/>
  <text x="94" y="1268" fill="#F3F7FF" font-family="Helvetica, Arial, sans-serif" font-size="108" font-weight="700">Kenneth Arnold</text>
  <text x="96" y="1348" fill="#C6D8F6" font-family="Helvetica, Arial, sans-serif" font-size="34" letter-spacing="7">1947 / RAINIER</text>
</svg>
